<svg version="1.0" xmlns="http://www.w3.org/2000/svg" viewBox="533.0 67.0 417.0 309.9" preserveAspectRatio="xMidYMid meet">
  <g transform="translate(0.000000,388.000000) scale(0.100000,-0.100000)" fill="currentColor" stroke="none">
    <path d="M8175 3103 c-218 -25 -413 -107 -543 -228 -81 -75 -126 -145 -163 -256 -29 -86 -32 -105 -32 -224 0 -107 4 -142 23 -200 71 -221 199 -360 497 -539 81 -49 164 -101 183 -116 19 -14 60 -39 90 -55 55 -29 184 -108 315 -193 201 -130 297 -245 325 -390 32 -158 -29 -308 -159 -391 -88 -57 -151 -72 -313 -78 -80 -3 -158 -3 -172 1 -48 12 -60 55 -53 191 4 66 14 167 24 225 10 58 18 140 18 182 0 71 -2 79 -29 107 -43 45 -103 69 -276 112 -175 44 -223 62 -244 94 -13 20 -70 200 -116 370 -47 173 -71 243 -98 285 -60 94 -123 135 -282 185 -154 48 -223 96 -400 275 -114 116 -116 117 -280 201 -141 72 -174 93 -229 148 -35 36 -68 78 -74 94 -9 27 -13 29 -47 23 -40 -6 -129 -44 -155 -66 -30 -25 -18 -64 30 -98 46 -32 59 -67 30 -78 -15 -6 -21 -34 -7 -34 109 -7 217 -46 295 -108 160 -128 201 -160 239 -187 70 -50 64 -80 -29 -154 -29 -23 -63 -60 -75 -84 -30 -58 -30 -147 1 -209 26 -54 148 -173 198 -195 39 -16 45 -13 158 76 28 22 59 40 71 40 48 2 159 -96 256 -224 101 -133 104 -177 18 -239 -39 -28 -58 -53 -97 -128 -53 -102 -86 -134 -253 -247 -107 -73 -172 -97 -285 -105 -115 -9 -185 -32 -315 -106 -58 -33 -169 -91 -246 -129 -176 -85 -176 -85 -114 -223 65 -147 73 -161 109 -185 34 -23 117 -32 155 -17 36 14 37 39 1 78 -45 50 -60 95 -45 140 15 46 37 58 192 110 192 64 266 82 423 106 192 28 226 35 365 80 78 25 158 60 222 96 55 31 118 61 141 65 73 14 461 11 481 -4 25 -18 76 -247 83 -367 3 -62 0 -116 -9 -155 -17 -76 -13 -112 15 -127 38 -21 315 -28 474 -12 275 27 374 50 524 122 168 80 275 183 348 335 53 108 61 148 60 297 0 149 -17 225 -73 324 -42 75 -145 185 -241 258 -58 44 -307 198 -490 303 -334 193 -493 300 -559 376 -50 59 -96 158 -103 220 -18 175 58 323 202 397 90 45 147 54 309 49 134 -4 160 -8 232 -34 146 -53 229 -115 314 -235 73 -103 143 -287 189 -493 7 -29 9 -30 61 -30 55 0 55 0 55 285 0 285 0 285 -34 348 -53 97 -155 180 -293 239 -193 81 -369 113 -608 111 -85 0 -168 -3 -185 -5z"/>
    <path d="M8745 2750 c-3 -5 -1 -10 4 -10 6 0 11 5 11 10 0 6 -2 10 -4 10 -3 0 -8 -4 -11 -10z"/>
    <path d="M9380 2695 c0 -8 5 -15 10 -15 6 0 10 7 10 15 0 8 -4 15 -10 15 -5 0 -10 -7 -10 -15z"/>
    <path d="M8850 2636 c0 -2 7 -6 15 -10 8 -3 15 -1 15 4 0 6 -7 10 -15 10 -8 0 -15 -2 -15 -4z"/>
    <path d="M5975 2478 c-98 -56 -97 -192 1 -249 35 -21 64 -23 116 -7 78 23 115 143 66 214 -41 60 -120 78 -183 42z"/>
    <path d="M6865 2490 c-3 -5 -1 -10 4 -10 6 0 11 5 11 10 0 6 -2 10 -4 10 -3 0 -8 -4 -11 -10z"/>
    <path d="M6411 2194 c0 -11 3 -14 6 -6 3 7 2 16 -1 19 -3 4 -6 -2 -5 -13z"/>
    <path d="M6361 2144 c0 -11 3 -14 6 -6 3 7 2 16 -1 19 -3 4 -6 -2 -5 -13z"/>
    <path d="M6138 2143 c7 -3 16 -2 19 1 4 3 -2 6 -13 5 -11 0 -14 -3 -6 -6z"/>
    <path d="M5910 2053 c-31 -12 -61 -48 -71 -85 -8 -32 -6 -46 10 -82 24 -56 49 -69 119 -64 47 4 60 10 84 37 64 72 17 186 -82 196 -25 2 -52 2 -60 -2z"/>
    <path d="M7680 1695 c0 -8 4 -15 9 -15 5 0 11 7 15 15 3 9 0 15 -9 15 -8 0 -15 -7 -15 -15z"/>
    <path d="M6165 1690 c3 -5 10 -10 16 -10 5 0 9 5 9 10 0 6 -7 10 -16 10 -8 0 -12 -4 -9 -10z"/>
    <path d="M6920 1689 c0 -5 5 -7 10 -4 6 3 10 8 10 11 0 2 -4 4 -10 4 -5 0 -10 -5 -10 -11z"/>
    <path d="M5960 1662 c-54 -27 -68 -115 -25 -166 21 -26 29 -29 75 -27 28 1 60 7 70 13 23 15 40 58 40 105 0 40 -39 83 -76 83 -12 0 -28 2 -36 5 -7 2 -29 -4 -48 -13z"/>
    <path d="M7098 1483 c7 -3 16 -2 19 1 4 3 -2 6 -13 5 -11 0 -14 -3 -6 -6z"/>
    <path d="M6160 1449 c0 -5 5 -7 10 -4 6 3 10 8 10 11 0 2 -4 4 -10 4 -5 0 -10 -5 -10 -11z"/>
    <path d="M6125 1355 c-32 -32 -32 -68 3 -111 34 -43 69 -45 123 -6 45 31 50 59 16 90 -22 21 -86 52 -107 52 -6 0 -22 -11 -35 -25z"/>
    <path d="M6376 1129 c-14 -11 -26 -29 -26 -40 0 -22 56 -109 70 -109 12 0 70 81 70 98 0 17 -57 72 -75 72 -7 0 -24 -9 -39 -21z"/>
    <path d="M8716 758 c3 -5 10 -6 15 -3 13 9 11 12 -6 12 -8 0 -12 -4 -9 -9z"/>
    <path d="M7058 633 c7 -3 16 -2 19 1 4 3 -2 6 -13 5 -11 0 -14 -3 -6 -6z"/>
    <path d="M5436 537 c3 -10 9 -15 12 -12 3 3 0 11 -7 18 -10 9 -11 8 -5 -6z"/>
    <path d="M6410 509 c0 -5 5 -7 10 -4 6 3 10 8 10 11 0 2 -4 4 -10 4 -5 0 -10 -5 -10 -11z"/>
  </g>
</svg>
